# xmcd CD database file
#
# Track frame offsets:
#	150
#	24020
#	51088
#	69986
#	89473
#	106769
#	127007
#	145040
#	163982
#	182880
#	202336
#	225612
#	255081
#	281186
#
# Disc length: 3991 seconds
#
# Revision: 0
# Processed by: cddbd v1.5.2PL0 Copyright (c) Steve Scherf et al.
# Submitted via: CDex 1.70beta2
#
DISCID=c30f950e
DTITLE=Trijntje Oosterhuis - See As I Do
DYEAR=2006
DGENRE=Jazz
TTITLE0=Everybody Needs Somebody
TTITLE1=See As I Do
TTITLE2=To Forget You
TTITLE3=Hunting Game
TTITLE4=On The 4th Of July
TTITLE5=It Isn't Over
TTITLE6=How I Wish
TTITLE7=Friend Of Mine
TTITLE8=Joy
TTITLE9=My Angel
TTITLE10=What More Can I Say
TTITLE11=Wild Horses
TTITLE12=Mother's Love
TTITLE13=Where Is The Love
EXTD=YEAR: 2006
EXTT0=
EXTT1=
EXTT2=
EXTT3=
EXTT4=
EXTT5=
EXTT6=
EXTT7=
EXTT8=
EXTT9=
EXTT10=
EXTT11=
EXTT12=
EXTT13=
PLAYORDER=
